<svg width="16" height="16" viewBox="0 0 16 16" fill="none" xmlns="http://www.w3.org/2000/svg">
<path fill-rule="evenodd" clip-rule="evenodd" d="M10.2349 0C10.7969 7.08941e-06 11.2923 0.386236 11.4539 0.950195L11.85 2.33333L14.6128 11.3965C14.8694 12.2382 15 13.1164 15 14V14.6667C15 15.403 14.4302 16 13.7273 16H2.27273C1.56982 16 1 15.403 1 14.6667V14C1 13.1164 1.13059 12.2382 1.38716 11.3965L4.14997 2.33333L4.54614 0.950195C4.70765 0.386236 5.20308 7.08941e-06 5.76511 0H10.2349ZM5.61364 1.66667L5.23176 3L2.27273 13H13.7273L10.7682 3L10.3864 1.66667H5.61364Z" fill="white"/>
<path d="M5.61364 1.66667L5.23176 3L2.27273 13H13.7273L10.7682 3L10.3864 1.66667H5.61364Z" fill="white" fill-opacity="0.33"/>
<path d="M9 13V10C9.55228 10 10 9.55224 10 8.99996C10 8.44771 9.55225 7.99996 9 7.99992V5C9 4.44772 8.55228 4 8 4C7.44772 4 7 4.44772 7 5V7.99992C6.44772 7.99992 6 8.44767 6 8.99996C6 9.55224 6.44772 10 7 10V13H9Z" fill="white"/>
</svg>
