<svg class="svg-icon" style="width: 1em;height: 1em;vertical-align: middle;fill: currentColor;overflow: hidden;" viewBox="0 0 1024 1024" version="1.1" xmlns="http://www.w3.org/2000/svg"><path d="M777.834 932.988L607.462 59.886a21.306 21.306 0 0 0-11.376-15L510.778 2.262c-6-3-13.078-3-19.078 0l-85.28 42.624a21.35 21.35 0 0 0-11.406 15L224.44 934.114c-1.218 6.282 0.422 12.75 4.468 17.656s10.078 7.75 16.454 7.75h511.784a21.3 21.3 0 0 0 21.312-21.312c0-1.782-0.218-3.532-0.624-5.22z" fill="#656D78" /><path d="M612.432 85.29l-4.968-25.404a21.306 21.306 0 0 0-11.376-15L510.778 2.262c-6-3-13.078-3-19.078 0l-85.28 42.624a21.35 21.35 0 0 0-11.406 15l-4.954 25.404h222.372z" fill="#965353" /><path d="M373.296 917.366h-85.28c-11.782 0-21.328 9.53-21.328 21.31v63.968c0 11.782 9.546 21.344 21.328 21.344h85.28c11.78 0 21.328-9.562 21.328-21.344v-63.968c0-11.782-9.546-21.31-21.328-21.31zM714.492 917.366h-85.31a21.296 21.296 0 0 0-21.312 21.31v63.968c0 11.782 9.532 21.344 21.312 21.344h85.31c11.75 0 21.31-9.562 21.31-21.344v-63.968c0-11.782-9.56-21.31-21.31-21.31z" fill="#434A54" /><path d="M458.59 85.29h85.296v554.394h-85.296z" fill="#F4F6F9" /><path d="M479.918 149.258c11.782 0 21.328-9.53 21.328-21.312s-9.546-21.344-21.328-21.344h-21.328v42.656h21.328zM522.56 149.258c-11.768 0-21.314 9.562-21.314 21.342 0 11.75 9.546 21.312 21.314 21.312h21.326V149.258H522.56zM479.918 234.568c11.782 0 21.328-9.562 21.328-21.342 0-11.782-9.546-21.312-21.328-21.312h-21.328v42.656h21.328zM522.56 234.568c-11.768 0-21.314 9.53-21.314 21.312s9.546 21.312 21.314 21.312h21.326v-42.624H522.56zM479.918 319.848c11.782 0 21.328-9.562 21.328-21.312 0-11.782-9.546-21.344-21.328-21.344h-21.328v42.656h21.328zM522.56 319.848c-11.768 0-21.314 9.53-21.314 21.312s9.546 21.344 21.314 21.344h21.326v-42.656H522.56zM479.918 405.126c11.782 0 21.328-9.53 21.328-21.312 0-11.78-9.546-21.312-21.328-21.312h-21.328v42.624h21.328zM522.56 405.126c-11.768 0-21.314 9.562-21.314 21.344s9.546 21.312 21.314 21.312h21.326v-42.656H522.56zM479.918 490.436c11.782 0 21.328-9.562 21.328-21.342 0-11.75-9.546-21.312-21.328-21.312h-21.328v42.654h21.328zM522.56 490.436c-11.768 0-21.314 9.532-21.314 21.312 0 11.782 9.546 21.314 21.314 21.314h21.326v-42.626H522.56zM479.918 575.716c11.782 0 21.328-9.532 21.328-21.31 0-11.782-9.546-21.344-21.328-21.344h-21.328v42.654h21.328zM522.56 575.716c-11.768 0-21.314 9.562-21.314 21.344 0 11.75 9.546 21.31 21.314 21.31h21.326v-42.654H522.56z" fill="#CCD1D9" /><path d="M567.214 681.308a21.64 21.64 0 0 1-8.532-1.782c-10.812-4.718-15.734-17.312-11-28.094l211.4-483.99c4.718-10.812 17.282-15.718 28.062-11.03 10.812 4.718 15.718 17.312 11.032 28.092L586.744 668.496a21.288 21.288 0 0 1-19.53 12.812z" fill="#F6BB42" /><path d="M701.804 500.374a21.34 21.34 0 0 0-12.124-14.218L611.526 452c-6.032-2.624-12.906-2.344-18.688 0.782s-9.782 8.75-10.876 15.218l-14.592 86.688c-1.624 9.654 3.5 19.186 12.466 23.092l39.094 17.062c2.75 1.218 5.656 1.782 8.532 1.782 6.438 0 12.75-2.938 16.876-8.282l53.686-69.624c4-5.218 5.406-11.968 3.78-18.344z" fill="#FFCE54" /><path d="M778.052 934.114l-54.092-277.18a21.298 21.298 0 0 0-20.938-17.25H299.454a21.334 21.334 0 0 0-20.936 17.25l-54.078 277.18c-1.218 6.282 0.422 12.75 4.468 17.656s10.078 7.75 16.454 7.75h511.752c6.376 0 12.406-2.844 16.468-7.75s5.69-11.376 4.47-17.656z" fill="#965353" /><path d="M248.69 809.804a21.2 21.2 0 0 0 4.468 0.468h184.104c11.782 0 21.328-9.562 21.328-21.312 0-11.782-9.546-21.344-21.328-21.344h-180.34l-8.232 42.188zM745.552 767.618h-52.404c-11.78 0-21.31 9.562-21.31 21.344 0 11.75 9.532 21.312 21.31 21.312h56.186c1.532 0 3-0.156 4.468-0.468l-8.25-42.188zM766.366 874.242h-94.528c-53.532 0-79.812 22.716-92.406 41.78-13.154 19.842-14.154 39.654-14.216 43.498h42.686c0.25-2.688 1.5-12.25 8-21.282 10.188-14.156 29-21.342 55.938-21.342h102.84l-8.314-42.654z" fill="#7F4545" /></svg>