<svg xmlns="http://www.w3.org/2000/svg" width="128" height="128" fill="none" viewBox="0 0 128 128"><path fill="url(#a)" d="M100 66h8v4h-8z"/><path fill="#000" fill-opacity=".6" d="M100 66h8v4h-8z"/><rect width="2" height="8" x="106" y="64" fill="url(#b)" rx="1"/><rect width="2" height="8" x="106" y="64" fill="#000" fill-opacity=".1" rx="1"/><path fill="#8e4ce4" d="M85.71 13.701A8 8 0 0 0 78.048 8H49.952a8 8 0 0 0-7.662 5.701L41 18h46z"/><path fill="#512191" d="M87 18H41l-1.2 4h8v4h32.4v-4h8z"/><path fill="#3a1270" d="M46.6 26 28 84h2l17.8-58v-4zM100 84 81.4 26l-1.2-4v4L98 84z"/><path fill="#322d39" d="M98 84 80.2 26H47.8L30 84z"/><path fill="url(#c)" d="M20 112a4 4 0 0 0 4 4h80a4 4 0 0 0 4-4V92H20z"/><path fill="#6a30b7" d="M39.8 22 22.434 76.38A51.4 51.4 0 0 0 20 92h88a51.3 51.3 0 0 0-2.434-15.62L88.2 22h-8l1.2 4L100 84H28l18.6-58 1.2-4z"/><path fill="url(#d)" d="m40.145 20.85 2.145-7.149A8 8 0 0 1 49.952 8H64v10H43.976a4 4 0 0 0-3.831 2.85"/><path fill="url(#e)" d="m87.855 20.85-2.145-7.149A8 8 0 0 0 78.048 8H64v10h20.024a4 4 0 0 1 3.831 2.85"/><path fill="#6029a9" d="M20 112a8 8 0 0 0 8 8h72a8 8 0 0 0 8-8v-4a8 8 0 0 0-8-8H28a8 8 0 0 0-8 8z"/><path fill="url(#f)" d="M20 92a8 8 0 0 0 8 8h72a8 8 0 0 0 0-16H28a8 8 0 0 0-8 8"/><rect width="6" height="12" x="26" y="104" fill="#404040" rx="2"/><rect width="6" height="12" x="26" y="106" fill="#202020" rx="2"/><rect width="6" height="12" x="96" y="104" fill="#404040" rx="2"/><rect width="6" height="12" x="96" y="106" fill="#202020" rx="2"/><path fill="#f6bb42" d="M62 32a2 2 0 1 1 4 0v38h-4z"/><path fill="#ffce54" d="M72 54H56l2 12h12z"/><path fill="#917530" fill-rule="evenodd" d="m72 58-2 12v-4l2-12zm-14 8-2-12v4l2 12z" clip-rule="evenodd"/><path fill="#a98838" d="M58 70h12v-4H58z"/><path fill="#f6bb42" d="M62 68h4v16h-4z"/><path stroke="#fff" stroke-linecap="round" stroke-opacity=".66" stroke-width="2" d="M52 34h-2"/><path stroke="#fff" stroke-linecap="round" stroke-opacity=".33" d="M52 37h-2M52 40h-2M52 43h-2M52 46h-2"/><path stroke="#fff" stroke-linecap="round" stroke-opacity=".66" stroke-width="2" d="M52 49h-4"/><path stroke="#fff" stroke-linecap="round" stroke-opacity=".33" d="M52 52h-2M52 55h-2M52 58h-2M52 61h-2"/><path stroke="#fff" stroke-linecap="round" stroke-opacity=".66" stroke-width="2" d="M52 64h-6"/><path stroke="#fff" stroke-linecap="round" stroke-opacity=".33" d="M52 67h-2M52 70h-2M52 73h-2M52 76h-2"/><path stroke="#fff" stroke-linecap="round" stroke-opacity=".66" stroke-width="2" d="M52 79h-8"/><defs><linearGradient id="a" x1="108" x2="108" y1="66" y2="70" gradientUnits="userSpaceOnUse"><stop stop-color="#9a9a9a"/><stop offset=".167" stop-color="#b9b9b9"/><stop offset=".333" stop-color="#c9c9c9"/><stop offset=".5" stop-color="#ededed"/><stop offset=".667" stop-color="silver"/><stop offset=".833" stop-color="#bebebe"/><stop offset="1" stop-color="#969696"/></linearGradient><linearGradient id="b" x1="108" x2="108" y1="64" y2="72" gradientUnits="userSpaceOnUse"><stop stop-color="#9a9a9a"/><stop offset=".167" stop-color="#b9b9b9"/><stop offset=".333" stop-color="#c9c9c9"/><stop offset=".5" stop-color="#ededed"/><stop offset=".667" stop-color="silver"/><stop offset=".833" stop-color="#bebebe"/><stop offset="1" stop-color="#969696"/></linearGradient><linearGradient id="c" x1="20" x2="108" y1="62" y2="62" gradientUnits="userSpaceOnUse"><stop offset=".02" stop-color="#bd8bff"/><stop offset=".04" stop-color="#8e4ce4"/><stop offset=".96" stop-color="#8e4ce4"/><stop offset=".98" stop-color="#bd8bff"/></linearGradient><linearGradient id="d" x1="41" x2="88" y1="10.5" y2="22" gradientUnits="userSpaceOnUse"><stop offset=".047" stop-color="#a66bf2"/><stop offset=".073" stop-color="#bd8bff"/><stop offset=".132" stop-color="#8e4ce4"/></linearGradient><linearGradient id="e" x1="87" x2="40" y1="10.5" y2="22" gradientUnits="userSpaceOnUse"><stop offset=".047" stop-color="#a66bf2"/><stop offset=".073" stop-color="#bd8bff"/><stop offset=".132" stop-color="#8e4ce4"/></linearGradient><linearGradient id="f" x1="20" x2="108" y1="92" y2="92" gradientUnits="userSpaceOnUse"><stop offset=".02" stop-color="#bd8bff"/><stop offset=".04" stop-color="#8e4ce4"/><stop offset=".96" stop-color="#8e4ce4"/><stop offset=".98" stop-color="#bd8bff"/></linearGradient></defs></svg>